/* XPM */
static char * wmep8_master_xpm[] = {
"64 64 5 1",
" 	c None",
".	c #000000",
"+	c #202020",
"@	c #C7C7C7",
"#	c #20B2AE",
"                                                                ",
"                                                                ",
"                                                                ",
"                                                                ",
"    ........................................................    ",
"    .++++++++++++++++++++++++++++++++++++++++++++++++++++++@    ",
"    .++++++++++++++++++++++++++++++++++++++++++++++++++++++@    ",
"    .++++++++++++++++++++++++++++++++++++++++++++++++++++++@    ",
"    .++++#++++++++++++++++++++++++#+++++++#++#+###+###+###+@    ",
"    .+++#+++++++++++++++++++++++++#+++++++#++#++#+++#+++#++@    ",
"    .++#++++++++++#+++++++++++++++#+++++++#++#++#+++#+++#++@    ",
"    .+###++###++++++++###++##+++###++##+++#++#++#+++#+++#++@    ",
"    .+#++++#++#+++#++#++++#++#+#++#+#++#++#++#++#+++#+++#++@    ",
"    .+#++++#++#+++#+++##++#++#+#++#+####++#+#+++#+++#+++#++@    ",
"    .+#++++#++#+++#+++++#+#++#+#++#+#+++++##++++#+++#+++#++@    ",
"    .+####+###++++#++###+++##+++###++###++#++++###+###+###+@    ",
"    .++++++#+++++++++++++++++++++++++++++++++++++++++++++++@    ",
"    .++++++#+++++++++++++++++++++++++++++++++++++++++++++++@    ",
"    .++++++++++++++++++++++++++++++++++++++++++++++++++++++@    ",
"    .++++++++++++++++++++++++++++++++++++++++++++++++++++++@    ",
"    .++++++++++++++++++++++++++++++++++++++++++++++++++++++@    ",
"    @@@@@@@@@@@@@@@@@@@@@@@@@@@@@@@@@@@@@@@@@@@@@@@@@@@@@@@@    ",
"                                                                ",
"                                                                ",
"                                                                ",
"                                                                ",
"                                                                ",
"                                                                ",
"                                                                ",
"                                                                ",
"                                                                ",
"                                                                ",
"                                                                ",
"                                                                ",
"                                                                ",
"                                                                ",
"                                                                ",
"                                                                ",
"                                                                ",
"                                                                ",
"                                                                ",
"                                                                ",
"    .........................           ....................    ",
"    .+++++++++++++++++++++++@           .++++++++++++++++++@    ",
"    .+++++++++++++++++++++++@           .++++++++++++++++++@    ",
"    .+++++++++++++++++++++++@           .++++++++++++++++++@    ",
"    .++##+++++++++++++++++++@           .++++++++++++++++++@    ",
"    .++++#++++++++++++++++++@           .++++++++++++++++++@    ",
"    .++#++#+++++++++++++++++@           .++++++++++++++++++@    ",
"    .++#++#+++++++++++++++++@           .++++++++++++++++++@    ",
"    .++#++#++#+#+#++#++###++@           .++++++++++++++++++@    ",
"    .++#++#+#+##+#++#+#+++++@           .++++++++++++++++++@    ",
"    .++#++#+#++#+#++#++##+++@           .++++++++++++++++++@    ",
"    .++#++#+#++#+#++#++++#++@           .++++++++++++++++++@    ",
"    .++###+++###++###+###+++@           .++++++++++++++++++@    ",
"    .+++++++++++++++#+++++++@           .++++++++++++++++++@    ",
"    .++++++++++++###++++++++@           .++++++++++++++++++@    ",
"    .+++++++++++++++++++++++@           .++++++++++++++++++@    ",
"    .+++++++++++++++++++++++@           .++++++++++++++++++@    ",
"    @@@@@@@@@@@@@@@@@@@@@@@@@           @@@@@@@@@@@@@@@@@@@@    ",
"                                                                ",
"                                                                ",
"                                                                ",
"                                                                "};
