/* XPM */
static char * wmep8_numbers_xpm[] = {
"50 11 2 1",
" 	c #202020",
".	c #20B2AE",
"                                                  ",
"                                                  ",
" ..  .     ..  ..   .  .  ..   ..  ..    ..   ..  ",
".  . .       .   .  .  . .    .      .  .  . .  . ",
".  . .       .   .  .  . .    .      .  .  . .  . ",
"           ..  ..    ..   ..   ..        ..   ..  ",
".  . .    .      .     .    . .  .   .  .  .    . ",
".  . .    .      .     .    . .  .   .  .  .    . ",
" ..  .     ..  ..         ..   ..    .   ..     . ",
"                                                  ",
"                                                  "};
